<svg width="614" height="670" viewBox="0 0 614 670" fill="none" xmlns="http://www.w3.org/2000/svg">
<path d="M554.933 590.093C554.954 568.963 546.574 548.687 531.641 533.729C516.709 518.776 496.448 510.365 475.313 510.355C454.183 510.339 433.907 518.724 418.953 533.661C404.005 548.599 395.599 568.864 395.593 589.995C395.588 611.131 403.979 631.401 418.921 646.349C433.864 661.292 454.129 669.693 475.265 669.693C496.375 669.673 516.615 661.282 531.552 646.36C546.484 631.443 554.896 611.209 554.932 590.095L554.933 590.093ZM455.403 590.093C455.403 584.807 457.507 579.739 461.241 576C464.981 572.26 470.054 570.161 475.34 570.161C480.626 570.161 485.699 572.26 489.438 576C493.173 579.74 495.277 584.807 495.277 590.093C495.277 595.385 493.173 600.453 489.438 604.192C485.699 607.932 480.626 610.031 475.34 610.031C470.054 610.031 464.98 607.932 461.241 604.192C457.507 600.452 455.403 595.385 455.403 590.093Z" fill="#FFFFFF"/>
<path d="M582.933 98.4934L128.133 101.03L128.139 90.5819C128.139 66.8166 118.696 44.0246 101.893 27.2219C85.0905 10.4192 62.2999 0.976562 38.5332 0.976562H30.3978C19.7259 0.976562 9.86708 6.66923 4.53375 15.9139C-0.804787 25.1535 -0.804787 36.5392 4.53375 45.7779C9.86708 55.0175 19.7271 60.7099 30.3978 60.7099H38.4603C46.3821 60.7099 53.9816 63.8558 59.5803 69.4599C65.1792 75.0588 68.3251 82.6578 68.3251 90.5799V389.913C68.3251 417.637 79.3407 444.225 98.9451 463.831C118.549 483.429 145.138 494.445 172.862 494.445H575.462C586.129 494.445 595.989 488.753 601.326 479.513C606.66 470.274 606.66 458.888 601.326 449.644C595.988 440.404 586.129 434.712 575.462 434.712H172.862C163.045 434.702 153.508 431.462 145.712 425.498C137.915 419.54 132.29 411.181 129.706 401.712L459.653 399.545H459.648C482.341 399.316 504.345 391.743 522.367 377.961C540.393 364.174 553.465 344.925 559.627 323.086L611.892 136.42H611.897C614.428 127.383 612.569 117.685 606.871 110.226C601.178 102.768 592.308 98.419 582.923 98.4867L582.933 98.4934ZM502.147 307.04C499.532 316.415 493.938 324.691 486.204 330.603C478.47 336.519 469.021 339.754 459.287 339.816L128.073 341.983L128.068 160.77L543.588 158.457L502.147 307.04Z" fill="#FFFFFF"/>
<path d="M188.4 669.693C209.531 669.693 229.801 661.292 244.744 646.349C259.687 631.401 268.077 611.131 268.067 589.995C268.061 568.864 259.66 548.599 244.707 533.661C229.753 518.724 209.483 510.339 188.347 510.355C167.211 510.365 146.951 518.777 132.019 533.729C117.087 548.688 108.707 568.964 108.727 590.093C108.768 611.208 117.175 631.443 132.112 646.359C147.044 661.28 167.289 669.671 188.399 669.692L188.4 669.693ZM188.4 570.163C193.686 570.163 198.759 572.262 202.493 576.001C206.233 579.741 208.332 584.809 208.332 590.095C208.332 595.386 206.233 600.454 202.493 604.193C198.759 607.933 193.686 610.032 188.4 610.032C183.114 610.032 178.041 607.933 174.301 604.193C170.562 600.454 168.463 595.386 168.463 590.095C168.463 584.808 170.562 579.74 174.301 576.001C178.041 572.262 183.114 570.163 188.4 570.163Z" fill="#FFFFFF"/>
</svg>
